<mxfile host="app.diagrams.net" modified="2020-11-15T19:35:09.294Z" agent="5.0 (Macintosh; Intel Mac OS X 10_14_6) AppleWebKit/537.36 (KHTML, like Gecko) Chrome/86.0.4240.198 Safari/537.36" etag="9jrXae7sY9EQGogd9WNp" version="13.9.8" type="github">
  <diagram id="XdgkQSht_issO96r3R7Y" name="Page-1">
    <mxGraphModel dx="1426" dy="794" grid="1" gridSize="10" guides="1" tooltips="1" connect="1" arrows="1" fold="1" page="1" pageScale="1" pageWidth="1654" pageHeight="1169" math="0" shadow="0">
      <root>
        <mxCell id="0" />
        <mxCell id="1" parent="0" />
        <mxCell id="KnOsRlaBw3bWj0cwvnL0-1" value="User" style="swimlane;childLayout=stackLayout;horizontal=1;startSize=30;horizontalStack=0;rounded=1;fontSize=14;fontStyle=0;strokeWidth=2;resizeParent=0;resizeLast=1;shadow=0;dashed=0;align=center;" parent="1" vertex="1">
          <mxGeometry x="110" y="260" width="170" height="70" as="geometry">
            <mxRectangle x="160" y="130" width="60" height="30" as="alternateBounds" />
          </mxGeometry>
        </mxCell>
        <mxCell id="KnOsRlaBw3bWj0cwvnL0-3" value="Role" style="swimlane;childLayout=stackLayout;horizontal=1;startSize=30;horizontalStack=0;rounded=1;fontSize=14;fontStyle=0;strokeWidth=2;resizeParent=0;resizeLast=1;shadow=0;dashed=0;align=center;" parent="1" vertex="1">
          <mxGeometry x="110" y="450" width="160" height="70" as="geometry">
            <mxRectangle x="160" y="130" width="60" height="30" as="alternateBounds" />
          </mxGeometry>
        </mxCell>
        <mxCell id="KnOsRlaBw3bWj0cwvnL0-4" value="Permission" style="swimlane;childLayout=stackLayout;horizontal=1;startSize=30;horizontalStack=0;rounded=1;fontSize=14;fontStyle=0;strokeWidth=2;resizeParent=0;resizeLast=1;shadow=0;dashed=0;align=center;" parent="1" vertex="1">
          <mxGeometry x="110" y="630" width="160" height="70" as="geometry">
            <mxRectangle x="160" y="130" width="60" height="30" as="alternateBounds" />
          </mxGeometry>
        </mxCell>
        <mxCell id="TLdXtALVqL00_uz7HN0H-17" style="edgeStyle=orthogonalEdgeStyle;rounded=0;orthogonalLoop=1;jettySize=auto;html=1;entryX=0;entryY=0.5;entryDx=0;entryDy=0;endArrow=none;endFill=0;" edge="1" parent="1" source="KnOsRlaBw3bWj0cwvnL0-5" target="TLdXtALVqL00_uz7HN0H-15">
          <mxGeometry relative="1" as="geometry" />
        </mxCell>
        <mxCell id="TLdXtALVqL00_uz7HN0H-18" value="1" style="edgeLabel;html=1;align=center;verticalAlign=middle;resizable=0;points=[];" vertex="1" connectable="0" parent="TLdXtALVqL00_uz7HN0H-17">
          <mxGeometry x="-0.9" y="2" relative="1" as="geometry">
            <mxPoint x="2" y="-13" as="offset" />
          </mxGeometry>
        </mxCell>
        <mxCell id="TLdXtALVqL00_uz7HN0H-19" value="is making" style="edgeLabel;html=1;align=center;verticalAlign=middle;resizable=0;points=[];" vertex="1" connectable="0" parent="TLdXtALVqL00_uz7HN0H-17">
          <mxGeometry x="0.45" relative="1" as="geometry">
            <mxPoint x="-16" as="offset" />
          </mxGeometry>
        </mxCell>
        <mxCell id="TLdXtALVqL00_uz7HN0H-20" value="0..*" style="edgeLabel;html=1;align=center;verticalAlign=middle;resizable=0;points=[];" vertex="1" connectable="0" parent="TLdXtALVqL00_uz7HN0H-17">
          <mxGeometry x="0.9125" relative="1" as="geometry">
            <mxPoint x="-13" y="15" as="offset" />
          </mxGeometry>
        </mxCell>
        <mxCell id="KnOsRlaBw3bWj0cwvnL0-5" value="Administrator" style="swimlane;childLayout=stackLayout;horizontal=1;startSize=30;horizontalStack=0;rounded=1;fontSize=14;fontStyle=0;strokeWidth=2;resizeParent=0;resizeLast=1;shadow=0;dashed=0;align=center;" parent="1" vertex="1">
          <mxGeometry x="380" y="160" width="160" height="70" as="geometry">
            <mxRectangle x="160" y="130" width="60" height="30" as="alternateBounds" />
          </mxGeometry>
        </mxCell>
        <mxCell id="KnOsRlaBw3bWj0cwvnL0-6" value="Member" style="swimlane;childLayout=stackLayout;horizontal=1;startSize=30;horizontalStack=0;rounded=1;fontSize=14;fontStyle=0;strokeWidth=2;resizeParent=0;resizeLast=1;shadow=0;dashed=0;align=center;" parent="1" vertex="1">
          <mxGeometry x="390" y="370" width="160" height="70" as="geometry">
            <mxRectangle x="160" y="130" width="60" height="30" as="alternateBounds" />
          </mxGeometry>
        </mxCell>
        <mxCell id="KnOsRlaBw3bWj0cwvnL0-7" value="Payer" style="swimlane;childLayout=stackLayout;horizontal=1;startSize=30;horizontalStack=0;rounded=1;fontSize=14;fontStyle=0;strokeWidth=2;resizeParent=0;resizeLast=1;shadow=0;dashed=0;align=center;" parent="1" vertex="1">
          <mxGeometry x="400" y="570" width="160" height="70" as="geometry">
            <mxRectangle x="160" y="130" width="60" height="30" as="alternateBounds" />
          </mxGeometry>
        </mxCell>
        <mxCell id="KnOsRlaBw3bWj0cwvnL0-11" value="is a" style="endArrow=none;html=1;rounded=0;exitX=0.75;exitY=0;exitDx=0;exitDy=0;entryX=0;entryY=0.5;entryDx=0;entryDy=0;edgeStyle=orthogonalEdgeStyle;" parent="1" source="KnOsRlaBw3bWj0cwvnL0-1" target="KnOsRlaBw3bWj0cwvnL0-5" edge="1">
          <mxGeometry x="-0.6952" y="-12" relative="1" as="geometry">
            <mxPoint x="250" y="370" as="sourcePoint" />
            <mxPoint x="410" y="370" as="targetPoint" />
            <mxPoint x="1" as="offset" />
          </mxGeometry>
        </mxCell>
        <mxCell id="KnOsRlaBw3bWj0cwvnL0-13" value="" style="endArrow=none;html=1;rounded=0;exitX=1;exitY=0.5;exitDx=0;exitDy=0;edgeStyle=orthogonalEdgeStyle;entryX=0.125;entryY=0;entryDx=0;entryDy=0;entryPerimeter=0;" parent="1" source="KnOsRlaBw3bWj0cwvnL0-1" target="KnOsRlaBw3bWj0cwvnL0-6" edge="1">
          <mxGeometry relative="1" as="geometry">
            <mxPoint x="290" y="390" as="sourcePoint" />
            <mxPoint x="420" y="360" as="targetPoint" />
            <Array as="points">
              <mxPoint x="410" y="295" />
            </Array>
          </mxGeometry>
        </mxCell>
        <mxCell id="KnOsRlaBw3bWj0cwvnL0-17" value="is a" style="edgeLabel;html=1;align=center;verticalAlign=middle;resizable=0;points=[];" parent="KnOsRlaBw3bWj0cwvnL0-13" vertex="1" connectable="0">
          <mxGeometry x="-0.53" y="1" relative="1" as="geometry">
            <mxPoint x="-10" y="16" as="offset" />
          </mxGeometry>
        </mxCell>
        <mxCell id="KnOsRlaBw3bWj0cwvnL0-15" value="" style="endArrow=none;html=1;rounded=0;exitX=0.75;exitY=1;exitDx=0;exitDy=0;edgeStyle=orthogonalEdgeStyle;entryX=0;entryY=0.5;entryDx=0;entryDy=0;" parent="1" source="KnOsRlaBw3bWj0cwvnL0-1" target="KnOsRlaBw3bWj0cwvnL0-7" edge="1">
          <mxGeometry relative="1" as="geometry">
            <mxPoint x="290" y="322.5" as="sourcePoint" />
            <mxPoint x="460" y="440" as="targetPoint" />
            <Array as="points">
              <mxPoint x="300" y="330" />
              <mxPoint x="300" y="605" />
            </Array>
          </mxGeometry>
        </mxCell>
        <mxCell id="KnOsRlaBw3bWj0cwvnL0-18" value="is a" style="edgeLabel;html=1;align=center;verticalAlign=middle;resizable=0;points=[];" parent="KnOsRlaBw3bWj0cwvnL0-15" vertex="1" connectable="0">
          <mxGeometry x="-0.1549" y="1" relative="1" as="geometry">
            <mxPoint x="-7.5" y="-34" as="offset" />
          </mxGeometry>
        </mxCell>
        <mxCell id="KnOsRlaBw3bWj0cwvnL0-20" value="" style="endArrow=none;html=1;rounded=0;strokeColor=#000000;entryX=0.375;entryY=0.014;entryDx=0;entryDy=0;entryPerimeter=0;" parent="1" target="KnOsRlaBw3bWj0cwvnL0-3" edge="1">
          <mxGeometry relative="1" as="geometry">
            <mxPoint x="170" y="330" as="sourcePoint" />
            <mxPoint x="280" y="380" as="targetPoint" />
          </mxGeometry>
        </mxCell>
        <mxCell id="KnOsRlaBw3bWj0cwvnL0-21" value="1" style="edgeLabel;html=1;align=center;verticalAlign=middle;resizable=0;points=[];" parent="KnOsRlaBw3bWj0cwvnL0-20" vertex="1" connectable="0">
          <mxGeometry x="-0.8016" y="1" relative="1" as="geometry">
            <mxPoint x="-11" as="offset" />
          </mxGeometry>
        </mxCell>
        <mxCell id="KnOsRlaBw3bWj0cwvnL0-22" value="0..*" style="edgeLabel;html=1;align=center;verticalAlign=middle;resizable=0;points=[];" parent="KnOsRlaBw3bWj0cwvnL0-20" vertex="1" connectable="0">
          <mxGeometry x="0.7689" y="2" relative="1" as="geometry">
            <mxPoint x="-12" as="offset" />
          </mxGeometry>
        </mxCell>
        <mxCell id="KnOsRlaBw3bWj0cwvnL0-27" value="relates" style="edgeLabel;html=1;align=center;verticalAlign=middle;resizable=0;points=[];" parent="KnOsRlaBw3bWj0cwvnL0-20" vertex="1" connectable="0">
          <mxGeometry x="0.306" y="-1" relative="1" as="geometry">
            <mxPoint as="offset" />
          </mxGeometry>
        </mxCell>
        <mxCell id="KnOsRlaBw3bWj0cwvnL0-23" value="" style="endArrow=none;html=1;rounded=0;strokeColor=#000000;entryX=0.369;entryY=-0.029;entryDx=0;entryDy=0;entryPerimeter=0;" parent="1" target="KnOsRlaBw3bWj0cwvnL0-4" edge="1">
          <mxGeometry relative="1" as="geometry">
            <mxPoint x="170" y="520" as="sourcePoint" />
            <mxPoint x="170" y="620" as="targetPoint" />
          </mxGeometry>
        </mxCell>
        <mxCell id="KnOsRlaBw3bWj0cwvnL0-24" value="1..*" style="edgeLabel;html=1;align=center;verticalAlign=middle;resizable=0;points=[];" parent="KnOsRlaBw3bWj0cwvnL0-23" vertex="1" connectable="0">
          <mxGeometry x="0.7967" y="1" relative="1" as="geometry">
            <mxPoint x="-20.14" as="offset" />
          </mxGeometry>
        </mxCell>
        <mxCell id="KnOsRlaBw3bWj0cwvnL0-25" value="1..*" style="edgeLabel;html=1;align=center;verticalAlign=middle;resizable=0;points=[];" parent="KnOsRlaBw3bWj0cwvnL0-23" vertex="1" connectable="0">
          <mxGeometry x="-0.7776" y="-1" relative="1" as="geometry">
            <mxPoint x="-18.89" as="offset" />
          </mxGeometry>
        </mxCell>
        <mxCell id="KnOsRlaBw3bWj0cwvnL0-26" value="has" style="edgeLabel;html=1;align=center;verticalAlign=middle;resizable=0;points=[];" parent="KnOsRlaBw3bWj0cwvnL0-23" vertex="1" connectable="0">
          <mxGeometry x="0.371" y="-1" relative="1" as="geometry">
            <mxPoint as="offset" />
          </mxGeometry>
        </mxCell>
        <mxCell id="KnOsRlaBw3bWj0cwvnL0-28" value="User Registration" style="swimlane;childLayout=stackLayout;horizontal=1;startSize=30;horizontalStack=0;rounded=1;fontSize=14;fontStyle=0;strokeWidth=2;resizeParent=0;resizeLast=1;shadow=0;dashed=0;align=center;" parent="1" vertex="1">
          <mxGeometry x="105" y="40" width="170" height="70" as="geometry">
            <mxRectangle x="160" y="130" width="60" height="30" as="alternateBounds" />
          </mxGeometry>
        </mxCell>
        <mxCell id="KnOsRlaBw3bWj0cwvnL0-29" value="" style="endArrow=none;html=1;rounded=0;strokeColor=#000000;edgeStyle=orthogonalEdgeStyle;entryX=0.176;entryY=0;entryDx=0;entryDy=0;entryPerimeter=0;" parent="1" source="KnOsRlaBw3bWj0cwvnL0-28" target="KnOsRlaBw3bWj0cwvnL0-1" edge="1">
          <mxGeometry relative="1" as="geometry">
            <mxPoint x="170" y="140" as="sourcePoint" />
            <mxPoint x="162" y="260" as="targetPoint" />
            <Array as="points">
              <mxPoint x="170" y="260" />
            </Array>
          </mxGeometry>
        </mxCell>
        <mxCell id="KnOsRlaBw3bWj0cwvnL0-30" value="created for" style="edgeLabel;html=1;align=center;verticalAlign=middle;resizable=0;points=[];" parent="KnOsRlaBw3bWj0cwvnL0-29" vertex="1" connectable="0">
          <mxGeometry x="-0.5869" y="1" relative="1" as="geometry">
            <mxPoint as="offset" />
          </mxGeometry>
        </mxCell>
        <mxCell id="KnOsRlaBw3bWj0cwvnL0-33" value="User Registration Status" style="swimlane;childLayout=stackLayout;horizontal=1;startSize=30;horizontalStack=0;rounded=1;fontSize=14;fontStyle=0;strokeWidth=2;resizeParent=0;resizeLast=1;shadow=0;dashed=0;align=center;" parent="1" vertex="1">
          <mxGeometry x="370" y="30" width="180" height="90" as="geometry" />
        </mxCell>
        <mxCell id="KnOsRlaBw3bWj0cwvnL0-34" value="-Confirmed&#xa;-WaitForConfirmation&#xa;-Expired" style="align=left;strokeColor=none;fillColor=none;spacingLeft=4;fontSize=12;verticalAlign=top;resizable=0;rotatable=0;part=1;" parent="KnOsRlaBw3bWj0cwvnL0-33" vertex="1">
          <mxGeometry y="30" width="180" height="60" as="geometry" />
        </mxCell>
        <mxCell id="KnOsRlaBw3bWj0cwvnL0-36" value="" style="endArrow=none;html=1;rounded=0;strokeColor=#000000;exitX=1;exitY=0.5;exitDx=0;exitDy=0;entryX=0;entryY=0.25;entryDx=0;entryDy=0;" parent="1" source="KnOsRlaBw3bWj0cwvnL0-28" target="KnOsRlaBw3bWj0cwvnL0-34" edge="1">
          <mxGeometry relative="1" as="geometry">
            <mxPoint x="260" y="140" as="sourcePoint" />
            <mxPoint x="420" y="140" as="targetPoint" />
          </mxGeometry>
        </mxCell>
        <mxCell id="KnOsRlaBw3bWj0cwvnL0-37" value="contains" style="edgeLabel;html=1;align=center;verticalAlign=middle;resizable=0;points=[];" parent="KnOsRlaBw3bWj0cwvnL0-36" vertex="1" connectable="0">
          <mxGeometry x="-0.0435" y="1" relative="1" as="geometry">
            <mxPoint x="10" y="1" as="offset" />
          </mxGeometry>
        </mxCell>
        <mxCell id="TLdXtALVqL00_uz7HN0H-30" style="edgeStyle=orthogonalEdgeStyle;rounded=0;orthogonalLoop=1;jettySize=auto;html=1;endArrow=none;endFill=0;" edge="1" parent="1" source="TLdXtALVqL00_uz7HN0H-1">
          <mxGeometry relative="1" as="geometry">
            <mxPoint x="820" y="420" as="targetPoint" />
          </mxGeometry>
        </mxCell>
        <mxCell id="TLdXtALVqL00_uz7HN0H-31" value="1" style="edgeLabel;html=1;align=center;verticalAlign=middle;resizable=0;points=[];" vertex="1" connectable="0" parent="TLdXtALVqL00_uz7HN0H-30">
          <mxGeometry x="-0.7565" relative="1" as="geometry">
            <mxPoint x="5" as="offset" />
          </mxGeometry>
        </mxCell>
        <mxCell id="TLdXtALVqL00_uz7HN0H-32" value="0..1" style="edgeLabel;html=1;align=center;verticalAlign=middle;resizable=0;points=[];" vertex="1" connectable="0" parent="TLdXtALVqL00_uz7HN0H-30">
          <mxGeometry x="0.8609" y="-1" relative="1" as="geometry">
            <mxPoint x="9" as="offset" />
          </mxGeometry>
        </mxCell>
        <mxCell id="TLdXtALVqL00_uz7HN0H-33" value="created after acceptance of" style="edgeLabel;html=1;align=center;verticalAlign=middle;resizable=0;points=[];" vertex="1" connectable="0" parent="TLdXtALVqL00_uz7HN0H-30">
          <mxGeometry x="-0.0522" y="2" relative="1" as="geometry">
            <mxPoint x="16.5" y="-19.5" as="offset" />
          </mxGeometry>
        </mxCell>
        <mxCell id="TLdXtALVqL00_uz7HN0H-1" value="Meeting Group" style="swimlane;childLayout=stackLayout;horizontal=1;startSize=30;horizontalStack=0;rounded=1;fontSize=14;fontStyle=0;strokeWidth=2;resizeParent=0;resizeLast=1;shadow=0;dashed=0;align=center;" vertex="1" parent="1">
          <mxGeometry x="760" y="515" width="160" height="70" as="geometry">
            <mxRectangle x="160" y="130" width="60" height="30" as="alternateBounds" />
          </mxGeometry>
        </mxCell>
        <mxCell id="TLdXtALVqL00_uz7HN0H-26" style="edgeStyle=orthogonalEdgeStyle;rounded=0;orthogonalLoop=1;jettySize=auto;html=1;entryX=0;entryY=0.5;entryDx=0;entryDy=0;endArrow=none;endFill=0;" edge="1" parent="1" source="TLdXtALVqL00_uz7HN0H-2" target="TLdXtALVqL00_uz7HN0H-25">
          <mxGeometry relative="1" as="geometry" />
        </mxCell>
        <mxCell id="TLdXtALVqL00_uz7HN0H-27" value="contains" style="edgeLabel;html=1;align=center;verticalAlign=middle;resizable=0;points=[];" vertex="1" connectable="0" parent="TLdXtALVqL00_uz7HN0H-26">
          <mxGeometry x="0.2154" y="-1" relative="1" as="geometry">
            <mxPoint as="offset" />
          </mxGeometry>
        </mxCell>
        <mxCell id="TLdXtALVqL00_uz7HN0H-28" value="1" style="edgeLabel;html=1;align=center;verticalAlign=middle;resizable=0;points=[];" vertex="1" connectable="0" parent="TLdXtALVqL00_uz7HN0H-26">
          <mxGeometry x="-0.8154" y="1" relative="1" as="geometry">
            <mxPoint x="98" y="-4" as="offset" />
          </mxGeometry>
        </mxCell>
        <mxCell id="TLdXtALVqL00_uz7HN0H-29" value="0..*" style="edgeLabel;html=1;align=center;verticalAlign=middle;resizable=0;points=[];" vertex="1" connectable="0" parent="TLdXtALVqL00_uz7HN0H-26">
          <mxGeometry x="-0.8462" relative="1" as="geometry">
            <mxPoint x="10" y="-15" as="offset" />
          </mxGeometry>
        </mxCell>
        <mxCell id="TLdXtALVqL00_uz7HN0H-34" style="edgeStyle=orthogonalEdgeStyle;rounded=0;orthogonalLoop=1;jettySize=auto;html=1;entryX=0.75;entryY=1;entryDx=0;entryDy=0;endArrow=none;endFill=0;" edge="1" parent="1" source="TLdXtALVqL00_uz7HN0H-2" target="KnOsRlaBw3bWj0cwvnL0-5">
          <mxGeometry relative="1" as="geometry">
            <Array as="points">
              <mxPoint x="770" y="310" />
              <mxPoint x="500" y="310" />
            </Array>
          </mxGeometry>
        </mxCell>
        <mxCell id="TLdXtALVqL00_uz7HN0H-35" value="is sent to" style="edgeLabel;html=1;align=center;verticalAlign=middle;resizable=0;points=[];" vertex="1" connectable="0" parent="TLdXtALVqL00_uz7HN0H-34">
          <mxGeometry x="0.6667" y="-2" relative="1" as="geometry">
            <mxPoint as="offset" />
          </mxGeometry>
        </mxCell>
        <mxCell id="TLdXtALVqL00_uz7HN0H-2" value="Meeting Group Proposal" style="swimlane;childLayout=stackLayout;horizontal=1;startSize=30;horizontalStack=0;rounded=1;fontSize=14;fontStyle=0;strokeWidth=2;resizeParent=0;resizeLast=1;shadow=0;dashed=0;align=center;" vertex="1" parent="1">
          <mxGeometry x="750" y="350" width="190" height="70" as="geometry">
            <mxRectangle x="160" y="130" width="60" height="30" as="alternateBounds" />
          </mxGeometry>
        </mxCell>
        <mxCell id="TLdXtALVqL00_uz7HN0H-3" value="" style="endArrow=none;html=1;rounded=0;edgeStyle=orthogonalEdgeStyle;exitX=1;exitY=0.5;exitDx=0;exitDy=0;entryX=0;entryY=0.75;entryDx=0;entryDy=0;" edge="1" parent="1" source="KnOsRlaBw3bWj0cwvnL0-6" target="TLdXtALVqL00_uz7HN0H-2">
          <mxGeometry relative="1" as="geometry">
            <mxPoint x="640" y="310" as="sourcePoint" />
            <mxPoint x="680" y="270" as="targetPoint" />
            <Array as="points">
              <mxPoint x="580" y="405" />
              <mxPoint x="580" y="403" />
              <mxPoint x="720" y="403" />
            </Array>
          </mxGeometry>
        </mxCell>
        <mxCell id="TLdXtALVqL00_uz7HN0H-4" value="1..*" style="edgeLabel;html=1;align=center;verticalAlign=middle;resizable=0;points=[];" vertex="1" connectable="0" parent="TLdXtALVqL00_uz7HN0H-3">
          <mxGeometry x="0.6243" relative="1" as="geometry">
            <mxPoint x="24.97" y="10" as="offset" />
          </mxGeometry>
        </mxCell>
        <mxCell id="TLdXtALVqL00_uz7HN0H-5" value="1" style="edgeLabel;html=1;align=center;verticalAlign=middle;resizable=0;points=[];" vertex="1" connectable="0" parent="TLdXtALVqL00_uz7HN0H-3">
          <mxGeometry x="-0.917" y="-1" relative="1" as="geometry">
            <mxPoint x="6.03" y="6.030000000000001" as="offset" />
          </mxGeometry>
        </mxCell>
        <mxCell id="TLdXtALVqL00_uz7HN0H-6" value="make proposal" style="edgeLabel;html=1;align=center;verticalAlign=middle;resizable=0;points=[];" vertex="1" connectable="0" parent="TLdXtALVqL00_uz7HN0H-3">
          <mxGeometry x="0.3353" y="1" relative="1" as="geometry">
            <mxPoint y="-11.5" as="offset" />
          </mxGeometry>
        </mxCell>
        <mxCell id="TLdXtALVqL00_uz7HN0H-15" value="Meeting Group &#xa;Proposal Decision" style="swimlane;childLayout=stackLayout;horizontal=1;startSize=40;horizontalStack=0;rounded=1;fontSize=14;fontStyle=0;strokeWidth=2;resizeParent=0;resizeLast=1;shadow=0;dashed=0;align=center;" vertex="1" parent="1">
          <mxGeometry x="710" y="150" width="180" height="90" as="geometry" />
        </mxCell>
        <mxCell id="TLdXtALVqL00_uz7HN0H-16" value="-Accept&#xa;-Reject" style="align=left;strokeColor=none;fillColor=none;spacingLeft=4;fontSize=12;verticalAlign=top;resizable=0;rotatable=0;part=1;" vertex="1" parent="TLdXtALVqL00_uz7HN0H-15">
          <mxGeometry y="40" width="180" height="50" as="geometry" />
        </mxCell>
        <mxCell id="TLdXtALVqL00_uz7HN0H-22" style="edgeStyle=orthogonalEdgeStyle;rounded=0;orthogonalLoop=1;jettySize=auto;html=1;entryX=0.316;entryY=0;entryDx=0;entryDy=0;entryPerimeter=0;endArrow=none;endFill=0;" edge="1" parent="1" source="TLdXtALVqL00_uz7HN0H-16" target="TLdXtALVqL00_uz7HN0H-2">
          <mxGeometry relative="1" as="geometry" />
        </mxCell>
        <mxCell id="TLdXtALVqL00_uz7HN0H-23" value="for" style="edgeLabel;html=1;align=center;verticalAlign=middle;resizable=0;points=[];" vertex="1" connectable="0" parent="TLdXtALVqL00_uz7HN0H-22">
          <mxGeometry x="0.3667" relative="1" as="geometry">
            <mxPoint y="18" as="offset" />
          </mxGeometry>
        </mxCell>
        <mxCell id="TLdXtALVqL00_uz7HN0H-24" value="Meeting Group &#xa;Proposal Status" style="swimlane;childLayout=stackLayout;horizontal=1;startSize=40;horizontalStack=0;rounded=1;fontSize=14;fontStyle=0;strokeWidth=2;resizeParent=0;resizeLast=1;shadow=0;dashed=0;align=center;" vertex="1" parent="1">
          <mxGeometry x="1060" y="330" width="180" height="90" as="geometry" />
        </mxCell>
        <mxCell id="TLdXtALVqL00_uz7HN0H-25" value="-Accepted&#xa;-Rejected&#xa;-InVerification" style="align=left;strokeColor=none;fillColor=none;spacingLeft=4;fontSize=12;verticalAlign=top;resizable=0;rotatable=0;part=1;" vertex="1" parent="TLdXtALVqL00_uz7HN0H-24">
          <mxGeometry y="40" width="180" height="50" as="geometry" />
        </mxCell>
      </root>
    </mxGraphModel>
  </diagram>
</mxfile>
